<svg width="492" height="181" viewBox="0 0 492 181" fill="none" xmlns="http://www.w3.org/2000/svg">
<g clip-path="url(#clip0_545_15496)">
<rect width="492" height="181" rx="32" fill="#1F1F1F"/>
<path d="M512.34 248.314C581.755 248.314 638.028 191.735 638.028 121.942C638.028 52.1484 581.755 -4.43042 512.34 -4.43042C442.924 -4.43042 386.652 52.1484 386.652 121.942C386.652 191.735 442.924 248.314 512.34 248.314Z" fill="url(#paint0_linear_545_15496)"/>
<path d="M255.376 408.205C324.792 408.205 381.064 351.626 381.064 281.832C381.064 212.039 324.792 155.46 255.376 155.46C185.961 155.46 129.688 212.039 129.688 281.832C129.688 351.626 185.961 408.205 255.376 408.205Z" stroke="#F8F0E4" stroke-miterlimit="10"/>
<path d="M520.266 75.7628C589.681 75.7628 645.954 19.184 645.954 -50.6094C645.954 -120.403 589.681 -176.982 520.266 -176.982C450.85 -176.982 394.578 -120.403 394.578 -50.6094C394.578 19.184 450.85 75.7628 520.266 75.7628Z" stroke="#F8F0E4" stroke-miterlimit="10"/>
<path d="M287.073 27.0805C304.378 27.0805 318.406 12.9761 318.406 -4.42242C318.406 -21.821 304.378 -35.9253 287.073 -35.9253C269.769 -35.9253 255.741 -21.821 255.741 -4.42242C255.741 12.9761 269.769 27.0805 287.073 27.0805Z" fill="url(#paint1_linear_545_15496)"/>
<path d="M86.5268 191.458C92.5392 191.458 97.4132 186.557 97.4132 180.512C97.4132 174.467 92.5392 169.566 86.5268 169.566C80.5144 169.566 75.6404 174.467 75.6404 180.512C75.6404 186.557 80.5144 191.458 86.5268 191.458Z" fill="url(#paint2_linear_545_15496)"/>
<path d="M394.578 326.213C441.474 326.213 479.49 287.99 479.49 240.839C479.49 193.688 441.474 155.465 394.578 155.465C347.683 155.465 309.667 193.688 309.667 240.839C309.667 287.99 347.683 326.213 394.578 326.213Z" fill="url(#paint3_linear_545_15496)"/>
<path d="M-28.2657 180.513C41.1499 180.513 97.4223 123.934 97.4223 54.1404C97.4223 -15.6531 41.1499 -72.2319 -28.2657 -72.2319C-97.6812 -72.2319 -153.954 -15.6531 -153.954 54.1404C-153.954 123.934 -97.6812 180.513 -28.2657 180.513Z" fill="url(#paint4_linear_545_15496)"/>
</g>
<defs>
<linearGradient id="paint0_linear_545_15496" x1="512.339" y1="248.314" x2="512.339" y2="-4.42403" gradientUnits="userSpaceOnUse">
<stop stop-color="#40A4FF"/>
<stop offset="1" stop-color="#311996"/>
</linearGradient>
<linearGradient id="paint1_linear_545_15496" x1="287.073" y1="27.0794" x2="287.073" y2="-35.9251" gradientUnits="userSpaceOnUse">
<stop stop-color="#40A4FF"/>
<stop offset="1" stop-color="#311996"/>
</linearGradient>
<linearGradient id="paint2_linear_545_15496" x1="97.4136" y1="180.509" x2="75.6423" y2="180.509" gradientUnits="userSpaceOnUse">
<stop stop-color="#40A4FF"/>
<stop offset="1" stop-color="#311996"/>
</linearGradient>
<linearGradient id="paint3_linear_545_15496" x1="309.667" y1="240.836" x2="479.493" y2="240.836" gradientUnits="userSpaceOnUse">
<stop stop-color="#E12179"/>
<stop offset="1" stop-color="#311996"/>
</linearGradient>
<linearGradient id="paint4_linear_545_15496" x1="-28.2689" y1="180.509" x2="-28.2689" y2="-72.2287" gradientUnits="userSpaceOnUse">
<stop stop-color="#E12179"/>
<stop offset="1" stop-color="#311996"/>
</linearGradient>
<clipPath id="clip0_545_15496">
<rect width="492" height="181" rx="32" fill="white"/>
</clipPath>
</defs>
</svg>
