<svg width="500" height="189" viewBox="0 0 500 189" fill="none" xmlns="http://www.w3.org/2000/svg">
<g filter="url(#filter0_d_545_13462)">
<g clip-path="url(#clip0_545_13462)">
<rect x="4" width="492" height="181" rx="32" fill="#1F1F1F"/>
<path d="M509.464 164.099C465.693 175.18 415.221 177.531 368.843 170.641C326.033 164.287 286.802 150.389 242.838 147.562C196.363 144.576 147.824 155.205 116.938 175.12C99.2068 186.553 86.9518 201.86 91.5354 216.86C95.9791 231.388 115.713 243.322 138.893 249.994C162.082 256.67 188.464 258.793 214.409 259.825C316.446 263.882 419.708 252.345 513.444 229.126C546.317 220.982 578.699 211.166 603.489 196.469C628.279 181.767 644.715 161.45 640.385 141.257C638.846 134.085 633.291 119.904 622.016 115.39C606.953 109.363 597.384 123.202 588.907 129.194C567.756 144.149 540.36 156.281 509.464 164.099Z" fill="url(#paint0_linear_545_13462)"/>
<g opacity="0.07">
<g opacity="0.07">
<path opacity="0.07" d="M563.303 -18.4085C529.661 -22.461 492.03 -20.0007 459.91 -27.7237C435.173 -33.6759 420.136 -45.8481 398.985 -54.3647C376.758 -63.3128 346.064 -66.641 319.428 -64.2205C281.229 -60.7434 247.149 -45.238 232.891 -24.8418C218.633 -4.4457 224.73 20.0922 248.356 37.4626C258.529 44.9425 271.712 51.2022 279.33 59.5998C293.212 74.8919 285.322 94.0034 269.157 108.556C252.984 123.11 229.576 134.513 209.352 147.335C189.128 160.157 171.301 175.603 170.479 192.795C169.316 217.343 206.124 239.306 248.601 244.083C291.078 248.864 335.882 238.711 367.25 221.782C398.618 204.853 418.037 181.922 430.79 158.461C442.896 136.189 450.769 111.771 479.285 94.9905C496.657 84.7726 519.908 78.5625 542.747 72.7541C565.586 66.9458 589.038 61.1424 607.363 51.48C625.698 41.8176 638.233 27.334 632.905 13.4654C626.196 -4.01416 594.172 -14.6934 563.303 -18.4085Z" fill="url(#paint1_linear_545_13462)"/>
</g>
</g>
<path opacity="0.16" d="M243.844 -24.9577C206.642 -0.0775867 192.541 34.5839 150.659 56.9493C126.954 69.6076 96.2943 77.1867 65.5213 83.2182C34.7482 89.2498 3.03924 94.0115 -26.168 102.161C-55.384 110.311 -82.5445 122.398 -96.4789 139.084C-110.405 155.77 -108.27 177.55 -85.4486 190.715C-65.2335 202.381 -32.8685 205.213 -4.88584 201.25C23.0968 197.287 47.3968 187.5 69.1339 176.747C90.871 165.993 110.876 154.049 134.293 144.501C166.378 131.416 206.091 123.043 245.305 125.826C284.519 128.609 321.992 144.283 331.195 166.078C340.021 186.995 321.721 209.35 293.336 223.615C264.951 237.881 228.003 245.346 191.281 250.728C112.101 262.329 21.7935 264.646 -45.4034 238.208C-97.5811 217.678 -127.374 182.615 -138.387 147.15C-149.391 111.685 -143.776 75.3167 -138.125 39.4499C-133.568 10.4975 -127.348 -20.692 -92.84 -42.1893C-58.6031 -63.5229 -4.78961 -70.0653 45.5512 -74.1773C167.357 -84.1274 291.088 -86.5182 413.804 -81.2902C426.488 -80.7495 439.53 -80.0749 450.884 -76.8211C462.238 -73.5672 471.659 -67.1091 471.274 -59.897C471.029 -55.3585 464.958 -49.8378 456.858 -48.5631C448.592 -47.2635 444.595 -50.6513 437.474 -52.5411C422.272 -56.5836 403.552 -58.0717 386.95 -58.5925C352.407 -59.6788 317.243 -55.0113 287.213 -45.2596C270.882 -39.9523 256.046 -33.1172 243.844 -24.9577Z" fill="url(#paint2_linear_545_13462)"/>
<path d="M45.2627 -30.7088C-0.809362 -10.4863 -35.7111 17.7965 -53.4419 49.2687C-60.2386 61.3317 -64.5772 74.0198 -62.7228 86.6384C-60.8596 99.2571 -52.3485 111.841 -36.3497 120.675C-17.7879 130.918 8.63774 135.144 34.3286 137.009C60.0107 138.874 86.2089 138.77 111.436 142.093C136.663 145.416 161.786 152.911 174.102 165.827C183.995 176.199 184.284 189.036 177.172 200.117C170.052 211.198 156.065 220.587 139.445 227.675C100.353 244.342 46.8897 248.349 -0.258277 240.974C-47.4063 233.598 -88.195 215.692 -117.472 193.48C-146.749 171.269 -165.145 144.925 -176.578 117.962C-190.521 85.1008 -194.457 50.4144 -180.838 17.5088C-167.218 -15.3968 -135.019 -46.4226 -86.4805 -66.045C-26.2903 -90.3844 51.4121 -95.1065 125.301 -96.5053C146.215 -96.9021 168.25 -96.9467 186.593 -91.2376C198.192 -87.6266 209.948 -79.9532 210.849 -72.1212C211.803 -63.8278 198.271 -64.6264 187.135 -63.8526C154.56 -61.5957 122.624 -56.0354 93.2592 -47.7519C76.3244 -42.9753 60.2119 -37.2711 45.2627 -30.7088Z" fill="url(#paint3_linear_545_13462)"/>
<path d="M470.836 9.50665C486.59 19.6998 508.484 26.0289 529.732 32.2341C550.979 38.4343 572.742 45.0213 587.84 55.522C608.615 69.9709 613.505 91.1904 599.981 108.184C586.458 125.177 555.16 137.131 522.314 137.861C506.411 138.213 490.701 136.149 475.008 134.636C459.316 133.124 442.967 132.166 427.677 134.671C412.386 137.176 398.303 143.852 395.408 152.726C393.308 159.164 397.376 165.915 404.426 171.099C411.485 176.282 421.282 180.066 431.543 183.077C466.453 193.325 508.668 195.254 546.019 188.305C583.37 181.356 615.368 165.622 632.784 145.638C650.619 125.172 653.007 101.021 643.744 78.8049C634.481 56.5934 614.152 36.2121 588.898 18.4349C569.812 4.99787 547.13 -7.1793 520.573 -15.7455C507.452 -19.9765 493.378 -23.3048 478.656 -25.2541C461.992 -27.4564 453.219 -28.4732 452.554 -17.2286C451.977 -7.47194 459.631 2.25987 470.836 9.50665Z" fill="url(#paint4_linear_545_13462)"/>
<path opacity="0.22" d="M789.656 24.9194C792.84 51.4463 778.381 78.5337 749.777 99.5995C729.554 114.5 701.256 126.687 668.576 129.876C636.605 132.991 604.047 127.327 574.07 120.288C544.102 113.25 514.746 104.684 482.775 101.574C450.803 98.4586 414.572 101.866 392.878 115.546C373.626 127.684 369.584 146.17 379.224 161.557C388.863 176.943 410.644 189.254 435.985 197.012C461.326 204.77 490.061 208.321 518.708 209.948C599.63 214.551 683.009 204.065 752.909 180.495C791.511 167.479 826.448 150.302 850.092 128.651C873.736 107 885.396 80.6269 877.261 55.5831C872.817 41.9129 862.058 28.8975 846.496 18.1588C838.309 12.5042 828.862 7.85651 818.54 3.51638C809.102 -0.446781 801.343 -6.45351 787.986 -3.04589C784.784 -2.22747 781.836 -0.808865 780.874 1.10575C779.658 3.51639 784.487 7.19681 785.825 9.57769C788.51 14.3444 789.062 19.9494 789.656 24.9194Z" fill="url(#paint5_linear_545_13462)"/>
<path d="M89.8879 -21.2047C66.7426 -0.714342 55.546 23.2333 41.734 46.2732C27.922 69.3131 10.1475 92.6506 -22.2351 108.617C-40.412 117.58 -64.1784 123.984 -88.0848 122.317C-116.234 120.353 -139.125 107.397 -149.981 92.5365C-160.836 77.6759 -161.632 61.1239 -160.687 45.048C-159.262 20.6937 -153.952 -4.13189 -135.224 -26.0607C-106.358 -59.8542 -47.9959 -83.2761 14.5998 -95.5177C77.1956 -107.764 144.34 -110.086 210.531 -111.098C227.072 -111.351 243.849 -111.514 259.901 -109.228C281.052 -106.217 303.733 -97.5018 305.614 -84.0598C307.399 -71.2923 284.139 -74.4966 268.902 -74.6851C224.037 -75.2506 179.049 -66.9671 142.555 -52.2702C121.772 -43.9024 103.647 -33.3819 89.8879 -21.2047Z" fill="url(#paint6_linear_545_13462)"/>
<path d="M32.1356 -43.3744C18.1662 -29.7736 9.73378 -14.5856 -2.73989 -0.523615C-15.2135 13.5384 -33.0406 27.0449 -58.6702 33.0963C-104.209 43.8549 -161.407 28.4486 -203.753 42.8033C-223.889 49.6285 -236.004 61.8106 -249.475 72.7031C-262.946 83.5956 -280.974 94.374 -304.338 95.6091C-323.915 96.6458 -343.168 90.3613 -354.95 81.433C-366.742 72.5097 -371.981 61.3047 -374.116 50.2237C-381.892 9.94231 -350.682 -30.845 -300.682 -59.7974C-250.682 -88.7498 -183.643 -106.78 -114.461 -116.938C-45.2868 -127.097 26.5286 -129.874 97.8891 -131.997C113.696 -132.469 129.747 -132.895 145.177 -130.891C160.607 -128.887 175.6 -124.106 183.543 -116.338C189.167 -110.842 193.077 -100.109 181.54 -96.1702C172.32 -93.0255 155.578 -93.7745 145.116 -92.1426C115.165 -87.48 87.3136 -78.5617 64.7018 -66.4986C51.992 -59.7181 40.9267 -51.9306 32.1356 -43.3744Z" fill="url(#paint7_linear_545_13462)"/>
<path d="M376.751 -29.2409C390.257 -12.6839 418.633 -1.57814 447.91 5.98113C477.187 13.5354 508.59 18.3815 537.019 26.9179C576.688 38.8273 610.549 58.9655 620.635 83.7663C630.72 108.567 612.325 137.604 572.253 149.077C543.195 157.4 508.468 155.738 476.645 151.839C444.822 147.941 413.271 141.979 380.722 142.311C348.173 142.643 313.149 151.016 300.142 167.935C287.345 184.576 300.186 204.943 323.987 217.085C347.788 229.228 380.189 234.466 411.95 236.747C457.716 240.041 505.205 237.848 548.014 228.097C590.824 218.345 628.656 200.712 650.218 177.588C676.399 149.513 677.064 116.186 673.713 84.4855C669.051 40.2707 655.668 -6.449 604.426 -39.8854C577.327 -57.5683 540.159 -69.8596 500.272 -75.6729C480.301 -78.5795 459.597 -79.8841 438.988 -79.4426C419.368 -79.016 395.146 -78.5696 381.579 -69.18C366.324 -58.6149 367.146 -41.0213 376.751 -29.2409Z" fill="url(#paint8_linear_545_13462)"/>
<path opacity="0.06" d="M519.662 10.2905C502.955 23.1522 476.879 32.9634 469.916 48.444C464.773 59.8623 471.911 72.4363 485.924 81.1364C499.946 89.8365 520.082 94.8909 540.656 96.5773C582.127 99.98 626.222 89.5389 651.099 70.4175C666.381 58.6719 674.455 44.213 676.467 29.6599C678.47 15.1068 674.638 0.444633 667.78 -13.6224C661.649 -26.2112 652.954 -38.567 639.194 -49.0329C625.435 -59.5038 606.217 -68.0055 583.911 -71.2444C566.828 -73.7245 547.872 -72.8615 532.127 -68.2336C521.289 -65.0492 518.98 -64.1614 524.937 -58.3629C529.162 -54.251 532.6 -49.9356 535.084 -45.3872C545.213 -26.8412 540.122 -5.45795 519.662 10.2905Z" fill="url(#paint9_linear_545_13462)"/>
<path opacity="0.55" d="M-70.019 19.3371C-60.878 29.2722 -46.5587 37.3722 -36.3856 46.9849C-16.1705 66.0865 -14.2461 91.0063 -31.4346 111.035C-41.6165 122.895 -57.7552 132.86 -67.8321 144.75C-77.909 156.639 -80.5332 172.234 -64.7968 181.946C-50.7836 190.591 -27.1834 191.583 -6.8284 189.421C13.5266 187.258 33.1205 182.581 53.7992 182.04C74.4866 181.499 97.9119 186.663 104.542 197.788C110.534 207.843 100.624 218.879 87.3801 226.379C62.2229 240.624 24.6532 246.78 -10.6597 244.429C-45.9726 242.078 -78.81 231.766 -103.985 217.535C-129.168 203.304 -147.074 185.329 -159.451 166.425C-182.955 130.529 -186.997 90.6293 -170.902 53.448C-164.516 38.7015 -154.824 24.1534 -138.388 12.1696C-125.696 2.91399 -105.9 -6.93686 -84.9506 -9.32269C-69.7128 -11.0587 -76.8331 -5.925 -77.7078 0.047025C-78.6875 6.66387 -75.3811 13.5039 -70.019 19.3371Z" fill="url(#paint10_linear_545_13462)"/>
<path d="M346.536 181.619C381.289 180.92 415.071 187.333 448.494 192.77C481.918 198.206 517.31 202.745 551.188 198.295C609.191 190.672 648.764 156.779 651.423 123.05C654.082 89.3208 625.881 56.7723 587.235 31.0936C572.461 21.2775 556.034 12.1657 543.753 1.30294C531.471 -9.55979 523.538 -22.7488 528.147 -35.3873C534.734 -53.4472 566.959 -66.2444 599.447 -67.1174C631.934 -67.9904 663.355 -58.7298 686.325 -45.6697C709.295 -32.6096 724.918 -16.0278 738.625 0.697804C756.89 22.9838 772.468 46.1923 779.493 70.4425C786.517 94.6927 784.654 120.143 768.935 143.044C747.031 174.948 700.015 199.535 648.021 216.936C548.87 250.119 426.539 260.277 314.766 244.603C299.423 242.451 283.713 239.658 272.035 233.612C250.14 222.268 258.17 208.017 276.645 197.502C294.76 187.19 321.247 182.13 346.536 181.619Z" fill="url(#paint11_linear_545_13462)"/>
</g>
</g>
<defs>
<filter id="filter0_d_545_13462" x="0" y="0" width="500" height="189" filterUnits="userSpaceOnUse" color-interpolation-filters="sRGB">
<feFlood flood-opacity="0" result="BackgroundImageFix"/>
<feColorMatrix in="SourceAlpha" type="matrix" values="0 0 0 0 0 0 0 0 0 0 0 0 0 0 0 0 0 0 127 0" result="hardAlpha"/>
<feOffset dy="4"/>
<feGaussianBlur stdDeviation="2"/>
<feComposite in2="hardAlpha" operator="out"/>
<feColorMatrix type="matrix" values="0 0 0 0 0 0 0 0 0 0 0 0 0 0 0 0 0 0 0.25 0"/>
<feBlend mode="normal" in2="BackgroundImageFix" result="effect1_dropShadow_545_13462"/>
<feBlend mode="normal" in="SourceGraphic" in2="effect1_dropShadow_545_13462" result="shape"/>
</filter>
<linearGradient id="paint0_linear_545_13462" x1="90.5739" y1="187.267" x2="641.083" y2="187.267" gradientUnits="userSpaceOnUse">
<stop stop-color="#7ED4EF"/>
<stop offset="0.2294" stop-color="#66BFE6"/>
<stop offset="0.711" stop-color="#298BD0"/>
<stop offset="1" stop-color="#0169C2"/>
</linearGradient>
<linearGradient id="paint1_linear_545_13462" x1="170.455" y1="90.1379" x2="634.146" y2="90.1379" gradientUnits="userSpaceOnUse">
<stop stop-color="#7ED4EF"/>
<stop offset="0.2294" stop-color="#66BFE6"/>
<stop offset="0.711" stop-color="#298BD0"/>
<stop offset="1" stop-color="#0169C2"/>
</linearGradient>
<linearGradient id="paint2_linear_545_13462" x1="563.074" y1="-48.9325" x2="131.464" y2="353.186" gradientUnits="userSpaceOnUse">
<stop stop-color="#21367F"/>
<stop offset="0.2834" stop-color="#194E91"/>
<stop offset="0.8794" stop-color="#068BC0"/>
<stop offset="0.9951" stop-color="#0298CA"/>
</linearGradient>
<linearGradient id="paint3_linear_545_13462" x1="-189.272" y1="73.9315" x2="210.886" y2="73.9315" gradientUnits="userSpaceOnUse">
<stop stop-color="#7ED4EF"/>
<stop offset="0.2294" stop-color="#66BFE6"/>
<stop offset="0.711" stop-color="#298BD0"/>
<stop offset="1" stop-color="#0169C2"/>
</linearGradient>
<linearGradient id="paint4_linear_545_13462" x1="686.358" y1="30.1123" x2="505.561" y2="187.347" gradientUnits="userSpaceOnUse">
<stop stop-color="#7ED4EF"/>
<stop offset="0.2294" stop-color="#66BFE6"/>
<stop offset="0.711" stop-color="#298BD0"/>
<stop offset="1" stop-color="#0169C2"/>
</linearGradient>
<linearGradient id="paint5_linear_545_13462" x1="927.79" y1="40.4532" x2="610.339" y2="336.213" gradientUnits="userSpaceOnUse">
<stop stop-color="#21367F"/>
<stop offset="0.2834" stop-color="#194E91"/>
<stop offset="0.8794" stop-color="#068BC0"/>
<stop offset="0.9951" stop-color="#0298CA"/>
</linearGradient>
<linearGradient id="paint6_linear_545_13462" x1="-160.978" y1="5.67062" x2="305.703" y2="5.67062" gradientUnits="userSpaceOnUse">
<stop stop-color="#7ED4EF"/>
<stop offset="0.2294" stop-color="#66BFE6"/>
<stop offset="0.711" stop-color="#298BD0"/>
<stop offset="1" stop-color="#0169C2"/>
</linearGradient>
<linearGradient id="paint7_linear_545_13462" x1="-375.303" y1="-18.3354" x2="188.995" y2="-18.3354" gradientUnits="userSpaceOnUse">
<stop stop-color="#7ED4EF"/>
<stop offset="0.2294" stop-color="#66BFE6"/>
<stop offset="0.711" stop-color="#298BD0"/>
<stop offset="1" stop-color="#0169C2"/>
</linearGradient>
<linearGradient id="paint8_linear_545_13462" x1="295.101" y1="79.3254" x2="675.134" y2="79.3254" gradientUnits="userSpaceOnUse">
<stop stop-color="#7ED4EF"/>
<stop offset="0.2294" stop-color="#66BFE6"/>
<stop offset="0.711" stop-color="#298BD0"/>
<stop offset="1" stop-color="#0169C2"/>
</linearGradient>
<linearGradient id="paint9_linear_545_13462" x1="468.247" y1="12.302" x2="676.998" y2="12.302" gradientUnits="userSpaceOnUse">
<stop stop-color="#7ED4EF"/>
<stop offset="0.2294" stop-color="#66BFE6"/>
<stop offset="0.711" stop-color="#298BD0"/>
<stop offset="1" stop-color="#0169C2"/>
</linearGradient>
<linearGradient id="paint10_linear_545_13462" x1="-180.594" y1="117.623" x2="106.329" y2="117.623" gradientUnits="userSpaceOnUse">
<stop stop-color="#7ED4EF"/>
<stop offset="0.2294" stop-color="#66BFE6"/>
<stop offset="0.711" stop-color="#298BD0"/>
<stop offset="1" stop-color="#0169C2"/>
</linearGradient>
<linearGradient id="paint11_linear_545_13462" x1="670.218" y1="-17.3228" x2="599.944" y2="256.33" gradientUnits="userSpaceOnUse">
<stop stop-color="#7ED4EF"/>
<stop offset="0.2294" stop-color="#66BFE6"/>
<stop offset="0.711" stop-color="#298BD0"/>
<stop offset="1" stop-color="#0169C2"/>
</linearGradient>
<clipPath id="clip0_545_13462">
<rect x="4" width="492" height="181" rx="32" fill="white"/>
</clipPath>
</defs>
</svg>
